<mxfile host="app.diagrams.net" modified="2021-10-13T08:43:31.054Z" agent="5.0 (Windows NT 10.0; Win64; x64) AppleWebKit/537.36 (KHTML, like Gecko) Chrome/94.0.4606.71 Safari/537.36 Edg/94.0.992.38" etag="-mQFfYH878CJZq_-o4Rd" version="15.5.2" type="github">
  <diagram id="xUoj9RPcD3D4wsji0dsL" name="Page-1">
    <mxGraphModel dx="1422" dy="794" grid="1" gridSize="10" guides="1" tooltips="1" connect="1" arrows="1" fold="1" page="1" pageScale="1" pageWidth="850" pageHeight="1100" math="0" shadow="0">
      <root>
        <mxCell id="0" />
        <mxCell id="1" parent="0" />
        <mxCell id="Nxgp4-7IpZYQWayNXJpq-1" value="AWS Personalize" style="fillColor=none;strokeColor=#5A6C86;dashed=1;verticalAlign=top;fontStyle=1;fontColor=#5A6C86;align=left;" vertex="1" parent="1">
          <mxGeometry x="240" y="70" width="530" height="420" as="geometry" />
        </mxCell>
        <mxCell id="Nxgp4-7IpZYQWayNXJpq-2" value="" style="sketch=0;points=[[0,0,0],[0.25,0,0],[0.5,0,0],[0.75,0,0],[1,0,0],[0,1,0],[0.25,1,0],[0.5,1,0],[0.75,1,0],[1,1,0],[0,0.25,0],[0,0.5,0],[0,0.75,0],[1,0.25,0],[1,0.5,0],[1,0.75,0]];outlineConnect=0;fontColor=#232F3E;gradientColor=#4AB29A;gradientDirection=north;fillColor=#116D5B;strokeColor=#ffffff;dashed=0;verticalLabelPosition=bottom;verticalAlign=top;align=center;html=1;fontSize=12;fontStyle=0;aspect=fixed;shape=mxgraph.aws4.resourceIcon;resIcon=mxgraph.aws4.personalize;" vertex="1" parent="1">
          <mxGeometry x="240" y="70" width="30" height="30" as="geometry" />
        </mxCell>
        <mxCell id="Nxgp4-7IpZYQWayNXJpq-13" style="edgeStyle=orthogonalEdgeStyle;rounded=0;orthogonalLoop=1;jettySize=auto;html=1;" edge="1" parent="1" source="Nxgp4-7IpZYQWayNXJpq-8" target="Nxgp4-7IpZYQWayNXJpq-12">
          <mxGeometry relative="1" as="geometry" />
        </mxCell>
        <mxCell id="Nxgp4-7IpZYQWayNXJpq-8" value="Train" style="sketch=0;outlineConnect=0;fontColor=#232F3E;gradientColor=none;fillColor=#56C0A7;strokeColor=none;dashed=0;verticalLabelPosition=bottom;verticalAlign=top;align=center;html=1;fontSize=12;fontStyle=0;aspect=fixed;pointerEvents=1;shape=mxgraph.aws4.sagemaker_train;" vertex="1" parent="1">
          <mxGeometry x="592" y="300" width="78" height="65" as="geometry" />
        </mxCell>
        <mxCell id="Nxgp4-7IpZYQWayNXJpq-9" value="" style="group" vertex="1" connectable="0" parent="1">
          <mxGeometry x="300" y="120" width="370" height="130" as="geometry" />
        </mxCell>
        <mxCell id="Nxgp4-7IpZYQWayNXJpq-3" value="Historical Datasets" style="fillColor=none;strokeColor=#5A6C86;dashed=1;verticalAlign=top;fontStyle=1;fontColor=#5A6C86;align=left;spacingLeft=30;" vertex="1" parent="Nxgp4-7IpZYQWayNXJpq-9">
          <mxGeometry width="370" height="130" as="geometry" />
        </mxCell>
        <mxCell id="Nxgp4-7IpZYQWayNXJpq-4" value="Interactions" style="sketch=0;outlineConnect=0;fontColor=#232F3E;gradientColor=none;fillColor=#6CAE3E;strokeColor=none;dashed=0;verticalLabelPosition=bottom;verticalAlign=top;align=center;html=1;fontSize=12;fontStyle=0;aspect=fixed;pointerEvents=1;shape=mxgraph.aws4.bucket_with_objects;" vertex="1" parent="Nxgp4-7IpZYQWayNXJpq-9">
          <mxGeometry x="32" y="26" width="75" height="78" as="geometry" />
        </mxCell>
        <mxCell id="Nxgp4-7IpZYQWayNXJpq-5" value="Items" style="sketch=0;outlineConnect=0;fontColor=#232F3E;gradientColor=none;fillColor=#6CAE3E;strokeColor=none;dashed=0;verticalLabelPosition=bottom;verticalAlign=top;align=center;html=1;fontSize=12;fontStyle=0;aspect=fixed;pointerEvents=1;shape=mxgraph.aws4.bucket_with_objects;" vertex="1" parent="Nxgp4-7IpZYQWayNXJpq-9">
          <mxGeometry x="145" y="26" width="75" height="78" as="geometry" />
        </mxCell>
        <mxCell id="Nxgp4-7IpZYQWayNXJpq-6" value="Users" style="sketch=0;outlineConnect=0;fontColor=#232F3E;gradientColor=none;fillColor=#6CAE3E;strokeColor=none;dashed=0;verticalLabelPosition=bottom;verticalAlign=top;align=center;html=1;fontSize=12;fontStyle=0;aspect=fixed;pointerEvents=1;shape=mxgraph.aws4.bucket_with_objects;" vertex="1" parent="Nxgp4-7IpZYQWayNXJpq-9">
          <mxGeometry x="264" y="26" width="75" height="78" as="geometry" />
        </mxCell>
        <mxCell id="Nxgp4-7IpZYQWayNXJpq-7" value="" style="sketch=0;points=[[0,0,0],[0.25,0,0],[0.5,0,0],[0.75,0,0],[1,0,0],[0,1,0],[0.25,1,0],[0.5,1,0],[0.75,1,0],[1,1,0],[0,0.25,0],[0,0.5,0],[0,0.75,0],[1,0.25,0],[1,0.5,0],[1,0.75,0]];outlineConnect=0;fontColor=#232F3E;gradientColor=#60A337;gradientDirection=north;fillColor=#277116;strokeColor=#ffffff;dashed=0;verticalLabelPosition=bottom;verticalAlign=top;align=center;html=1;fontSize=12;fontStyle=0;aspect=fixed;shape=mxgraph.aws4.resourceIcon;resIcon=mxgraph.aws4.s3;" vertex="1" parent="Nxgp4-7IpZYQWayNXJpq-9">
          <mxGeometry width="30" height="30" as="geometry" />
        </mxCell>
        <mxCell id="Nxgp4-7IpZYQWayNXJpq-10" style="edgeStyle=orthogonalEdgeStyle;rounded=0;orthogonalLoop=1;jettySize=auto;html=1;" edge="1" parent="1" source="Nxgp4-7IpZYQWayNXJpq-3" target="Nxgp4-7IpZYQWayNXJpq-8">
          <mxGeometry relative="1" as="geometry">
            <Array as="points">
              <mxPoint x="620" y="300" />
              <mxPoint x="620" y="300" />
            </Array>
          </mxGeometry>
        </mxCell>
        <mxCell id="Nxgp4-7IpZYQWayNXJpq-12" value="Solution" style="sketch=0;outlineConnect=0;fontColor=#232F3E;gradientColor=none;fillColor=#56C0A7;strokeColor=none;dashed=0;verticalLabelPosition=bottom;verticalAlign=top;align=center;html=1;fontSize=12;fontStyle=0;aspect=fixed;pointerEvents=1;shape=mxgraph.aws4.sagemaker_model;" vertex="1" parent="1">
          <mxGeometry x="425" y="293.5" width="78" height="78" as="geometry" />
        </mxCell>
      </root>
    </mxGraphModel>
  </diagram>
</mxfile>
